<svg width="108px" height="24px" viewBox="0 0 108 24" version="1.1" xmlns="http://www.w3.org/2000/svg" xmlns:xlink="http://www.w3.org/1999/xlink">
    <title>logo</title>
    <g id="Page-1" stroke="none" stroke-width="1" fill="none" fill-rule="evenodd">
        <g id="logo" transform="translate(-0.000000, 0.000000)" fill="white" fill-rule="nonzero">
            <path d="M28.9464241,14.7585719 L31.5264241,14.7585719 C31.5378527,17.0471433 33.0607099,18.3957148 35.6521384,18.3957148 C37.9992813,18.3957148 39.5449956,17.3142862 39.5449956,15.6300005 C39.5449956,14.2942862 38.6264241,13.5271433 36.2221384,12.9571433 L34.3278527,12.5042862 C30.8307099,11.6785719 29.2964241,10.2271433 29.2964241,7.83284333 C29.2964241,4.78855762 31.7478527,2.7785719 35.4664241,2.7785719 C39.1849956,2.7785719 41.5549956,4.85855762 41.6607099,8.23998619 L39.1621384,8.23998619 C39.0349956,6.25284333 37.6164241,5.03284333 35.4321384,5.03284333 C33.2478527,5.03284333 31.8649956,6.13712905 31.8649956,7.70570048 C31.8649956,8.96141476 32.7949956,9.68141476 35.1764241,10.2500005 L37.0478527,10.691429 C40.5221384,11.5171433 42.1264241,13.0157148 42.1264241,15.491429 C42.1264241,18.6057148 39.5821384,20.651429 35.653567,20.651429 C31.5049956,20.651429 28.9478527,18.4200005 28.9478527,14.7600005 L28.9464241,14.7585719 Z" id="Path"></path>
            <path d="M49.3407099,10.121429 L46.853567,10.121429 L46.853567,17.1285719 C46.853567,18.0357148 47.1678527,18.3485719 48.143567,18.3485719 L49.3407099,18.3485719 L49.3407099,20.3700005 L47.7949956,20.3700005 C45.493567,20.3700005 44.3907099,19.4171433 44.3907099,17.441429 L44.3907099,10.1200005 L42.2292813,10.1200005 L42.2292813,8.0985719 L44.3907099,8.0985719 L44.3907099,4.75142905 L46.8549956,4.75142905 L46.8549956,8.0985719 L49.3421384,8.0985719 L49.3421384,10.1200005 L49.3407099,10.121429 Z" id="Path"></path>
            <path d="M49.753567,14.2585719 C49.753567,10.5171433 52.123567,7.82142905 55.4707099,7.82142905 C58.8178527,7.82142905 61.1992813,10.4471433 61.1992813,14.2357148 L61.1992813,14.8985719 L52.1692813,14.8985719 C52.2507099,17.1071433 53.4821384,18.6057148 55.6321384,18.6057148 C57.2364241,18.6057148 58.3049956,17.8042862 58.653567,16.641429 L61.0121384,16.641429 C60.5592813,19.011429 58.373567,20.6500005 55.5964241,20.6500005 C51.9592813,20.6500005 49.7507099,17.9657148 49.7507099,14.2585719 L49.753567,14.2585719 Z M58.8064241,13.0385719 C58.6092813,11.0857148 57.353567,9.86571476 55.4949956,9.86571476 C53.6364241,9.86571476 52.403567,11.0857148 52.1949956,13.0385719 L58.8078527,13.0385719 L58.8064241,13.0385719 Z" id="Shape"></path>
            <path d="M62.5992813,17.4200005 L62.5992813,3.05712905 L65.0507099,3.05712905 L65.0507099,17.1757148 C65.0507099,18.1285719 65.3064241,18.361429 66.2364241,18.361429 L66.7249956,18.361429 L66.7249956,20.371429 L66.0164241,20.371429 C63.5649956,20.371429 62.5992813,19.5457148 62.5992813,17.4200005 Z" id="Path"></path>
            <path d="M67.6949956,17.4200005 L67.6949956,3.05712905 L70.1464241,3.05712905 L70.1464241,17.1757148 C70.1464241,18.1285719 70.4021384,18.361429 71.3321384,18.361429 L71.8207099,18.361429 L71.8207099,20.371429 L71.1121384,20.371429 C68.6607099,20.371429 67.6949956,19.5457148 67.6949956,17.4200005 Z" id="Path"></path>
            <path d="M72.733567,3.05712905 L75.3021384,3.05712905 L75.3021384,5.58998619 L72.733567,5.58998619 L72.733567,3.05712905 Z M72.7907099,8.09998619 L75.2421384,8.09998619 L75.2421384,20.371429 L72.7907099,20.371429 L72.7907099,8.09998619 Z" id="Shape"></path>
            <path d="M77.2949956,15.7471433 L77.2949956,8.10142905 L79.7464241,8.10142905 L79.7464241,15.4457148 C79.7464241,17.4100005 80.733567,18.4200005 82.4421384,18.4200005 C84.1507099,18.4200005 85.393567,17.4442862 85.393567,15.1657148 L85.393567,8.10000048 L87.8449956,8.10000048 L87.8449956,20.371429 L85.4392813,20.371429 L85.4392813,18.5242862 C84.6021384,19.9185719 83.3592813,20.6157148 81.7321384,20.6157148 C79.2107099,20.6157148 77.293567,18.9542862 77.293567,15.7471433 L77.2949956,15.7471433 Z" id="Path"></path>
            <path d="M89.8964241,8.10000048 L92.2792813,8.10000048 L92.2792813,10.1571433 C93.0349956,8.64714333 94.4178527,7.85571476 95.9392813,7.85571476 C97.6121384,7.85571476 98.9607099,8.8085719 99.4721384,10.121429 C100.134996,8.79714333 101.552138,7.85571476 103.364996,7.85571476 C105.642138,7.85571476 107.454996,9.34285762 107.454996,12.2942862 L107.454996,20.3700005 L104.99071,20.3700005 L104.99071,12.5028576 C104.99071,10.7485719 103.852138,10.0042862 102.526424,10.0042862 C100.887853,10.0042862 99.8764241,11.131429 99.8764241,12.7000005 L99.8764241,20.3700005 L97.4592813,20.3700005 L97.4592813,12.3400005 C97.4592813,10.9342862 96.4478527,10.0042862 95.053567,10.0042862 C93.6592813,10.0042862 92.3464241,11.0271433 92.3464241,12.9671433 L92.3464241,20.3700005 L89.8949956,20.3700005 L89.8949956,8.0985719 L89.8964241,8.10000048 Z" id="Path"></path>
            <path d="M10.5909956,2.26451476 C13.4879956,4.41362905 15.2107099,8.02281476 15.0572813,11.6245719 C14.561567,11.8347148 14.0437099,12.0038576 13.5164241,12.119429 C14.2799956,5.76970048 7.89670985,0.183671904 1.70775271,1.73195762 C1.10062414,4.6478719 1.86742414,7.70348619 3.76443842,9.97865762 C3.38629556,10.3115719 3.02706699,10.6718576 2.69513842,11.0500005 C0.226695565,8.1740719 -0.616775864,4.16048619 0.458838422,0.497743332 C3.93250985,-0.565270953 7.73185271,0.0975433325 10.5909956,2.26451476 Z" id="Path"></path>
            <path d="M2.26446699,12.8368576 C4.41356699,9.93980048 8.02270985,8.21714333 11.624567,8.37050048 C11.8347099,8.86628619 12.0038527,9.38414333 12.1192813,9.91144333 C5.76970985,9.14780048 0.183624136,15.5311433 1.73190985,21.7190005 C4.64785271,22.3261433 7.70342414,21.5592862 9.97856699,19.6622862 C10.311567,20.040429 10.6718527,20.3997148 11.0499956,20.7315719 C8.17399556,23.2000005 4.16042414,24.0445719 0.497695565,22.9690005 C-0.565304435,19.4952862 0.0985384219,15.6960005 2.26446699,12.8368576 Z" id="Path"></path>
            <path d="M12.8367099,21.1632862 C9.93970985,19.0141433 8.21713842,15.4050005 8.37042414,11.8031433 C8.86628128,11.5931433 9.38399556,11.4240005 9.91142414,11.308429 C9.14870985,17.6571433 15.5309956,23.2441433 21.7199956,21.6958576 C22.3271384,18.7800005 21.5602813,15.7242862 19.6632813,13.4491433 C20.0414241,13.1161433 20.4007099,12.7558576 20.732567,12.3777148 C23.2009956,15.2537148 24.045567,19.2672862 22.9699956,22.9301433 C19.4962813,23.9931433 15.6969956,23.3292862 12.8377099,21.1632862 L12.8367099,21.1632862 Z" id="Path"></path>
            <path d="M21.1632813,10.5910005 C19.0141384,13.4881433 15.4049956,15.2107148 11.8031384,15.057429 C11.5931384,14.5615719 11.4239956,14.0437148 11.3084241,13.516429 C17.6569956,14.2790005 23.2441384,7.89678619 21.6958527,1.70782905 C18.7798527,1.10070048 15.7242813,1.86748619 13.4491384,3.76451476 C13.1161384,3.3863719 12.7558527,3.02712905 12.3777099,2.69521476 C15.2537099,0.226771904 19.2672813,-0.616699525 22.9299956,0.458900475 C23.9929956,3.93258619 23.3291384,7.7318719 21.1632813,10.5910005 Z" id="Path"></path>
        </g>
    </g>
</svg>