<svg width="110" height="24" viewBox="0 0 770 193" fill="none" xmlns="http://www.w3.org/2000/svg">
<g clip-path="url(#clip0_45_1111)">
<path d="M273.625 133.31H291.685C291.765 149.33 302.425 158.77 320.565 158.77C336.995 158.77 347.815 151.2 347.815 139.41C347.815 130.06 341.385 124.69 324.555 120.7L311.295 117.53C286.815 111.75 276.075 101.59 276.075 84.8299C276.075 63.5199 293.235 49.45 319.265 49.45C345.295 49.45 361.885 64.0099 362.625 87.6799H345.135C344.245 73.7699 334.315 65.2299 319.025 65.2299C303.735 65.2299 294.055 72.9599 294.055 83.9399C294.055 92.7299 300.565 97.7699 317.235 101.75L330.335 104.84C354.655 110.62 365.885 121.11 365.885 138.44C365.885 160.24 348.075 174.56 320.575 174.56C291.535 174.56 273.635 158.94 273.635 133.32L273.625 133.31Z" fill="white"/>
<path d="M416.385 100.85H398.975V149.9C398.975 156.25 401.175 158.44 408.005 158.44H416.385V172.59H405.565C389.455 172.59 381.735 165.92 381.735 152.09V100.84H366.605V86.69H381.735V63.26H398.985V86.69H416.395V100.84L416.385 100.85Z" fill="white"/>
<path d="M419.275 129.81C419.275 103.62 435.865 84.75 459.295 84.75C482.725 84.75 499.395 103.13 499.395 129.65V134.29H436.185C436.755 149.75 445.375 160.24 460.425 160.24C471.655 160.24 479.135 154.63 481.575 146.49H498.085C494.915 163.08 479.615 174.55 460.175 174.55C434.715 174.55 419.255 155.76 419.255 129.81H419.275ZM482.645 121.27C481.265 107.6 472.475 99.06 459.465 99.06C446.455 99.06 437.825 107.6 436.365 121.27H482.655H482.645Z" fill="white"/>
<path d="M509.195 151.94V51.3999H526.355V150.23C526.355 156.9 528.145 158.53 534.655 158.53H538.075V172.6H533.115C515.955 172.6 509.195 166.82 509.195 151.94Z" fill="white"/>
<path d="M544.865 151.94V51.3999H562.025V150.23C562.025 156.9 563.815 158.53 570.325 158.53H573.745V172.6H568.785C551.625 172.6 544.865 166.82 544.865 151.94Z" fill="white"/>
<path d="M580.135 51.3999H598.115V69.1299H580.135V51.3999ZM580.535 86.6999H597.695V172.6H580.535V86.6999Z" fill="white"/>
<path d="M612.065 140.23V86.71H629.225V138.12C629.225 151.87 636.135 158.94 648.095 158.94C660.055 158.94 668.755 152.11 668.755 136.16V86.7H685.915V172.6H669.075V159.67C663.215 169.43 654.515 174.31 643.125 174.31C625.475 174.31 612.055 162.68 612.055 140.23H612.065Z" fill="white"/>
<path d="M700.275 86.7H716.955V101.1C722.245 90.53 731.925 84.99 742.575 84.99C754.285 84.99 763.725 91.66 767.305 100.85C771.945 91.58 781.865 84.99 794.555 84.99C810.495 84.99 823.185 95.4 823.185 116.06V172.59H805.935V117.52C805.935 105.24 797.965 100.03 788.685 100.03C777.215 100.03 770.135 107.92 770.135 118.9V172.59H753.215V116.38C753.215 106.54 746.135 100.03 736.375 100.03C726.615 100.03 717.425 107.19 717.425 120.77V172.59H700.265V86.69L700.275 86.7Z" fill="white"/>
<path d="M145.137 45.8516C165.416 60.8954 177.475 86.1597 176.401 111.372C172.931 112.843 169.306 114.027 165.615 114.836C170.96 70.3879 126.277 31.2857 82.9543 42.1237C78.7044 62.5351 84.072 83.9244 97.3511 99.8506C94.7041 102.181 92.1895 104.703 89.866 107.35C72.5869 87.2185 66.6826 59.1234 74.2119 33.4842C98.5276 26.0431 125.123 30.6828 145.137 45.8516Z" fill="white"/>
<path d="M86.8513 119.858C101.895 99.5786 127.159 87.52 152.372 88.5935C153.843 92.064 155.027 95.689 155.835 99.3801C111.388 94.0346 72.2854 138.718 83.1234 182.033C103.535 186.283 124.924 180.915 140.85 167.636C143.181 170.283 145.703 172.798 148.35 175.121C128.218 192.4 100.123 198.312 74.4839 190.783C67.0429 166.467 71.6898 139.872 86.8513 119.858Z" fill="white"/>
<path d="M160.857 178.143C140.578 163.099 128.52 137.835 129.593 112.622C133.064 111.152 136.688 109.968 140.38 109.159C135.041 153.6 179.717 192.709 223.04 181.871C227.29 161.46 221.922 140.07 208.643 124.144C211.29 121.813 213.805 119.291 216.128 116.644C233.407 136.776 239.319 164.871 231.79 190.511C207.474 197.952 180.879 193.305 160.864 178.143H160.857Z" fill="white"/>
<path d="M219.143 104.137C204.099 124.417 178.835 136.475 153.622 135.402C152.152 131.931 150.968 128.306 150.159 124.615C194.599 129.953 233.709 85.2775 222.871 41.9548C202.459 37.7049 181.07 43.0724 165.144 56.3516C162.813 53.7046 160.291 51.1899 157.644 48.8665C177.776 31.5874 205.871 25.6831 231.51 33.2123C238.951 57.5281 234.304 84.1231 219.143 104.137Z" fill="white"/>
</g>
<defs>
<clipPath id="clip0_45_1111">
<rect width="822.39" height="223.04" fill="white" transform="translate(0.804932 0.47998)"/>
</clipPath>
</defs>
</svg>